<?xml version="1.0" encoding="UTF-8"?>
<svg version="1.1" xmlns="http://www.w3.org/2000/svg" width="512" height="512">
<path d="M0 0 C16.11165774 8.65536128 31.01132503 18.56268192 45.22753906 30.06176758 C46.145271 30.80378418 46.145271 30.80378418 47.08154297 31.56079102 C63.17219229 44.69834326 76.81625293 59.44370324 89.22753906 76.06176758 C89.97624268 75.92077637 90.72494629 75.77978516 91.49633789 75.63452148 C130.91254357 68.26379063 165.79748308 67.89381697 205.22753906 76.06176758 C205.88238281 75.20196289 206.53722656 74.3421582 207.21191406 73.45629883 C213.79666215 64.89441663 220.74182635 56.8452216 228.22753906 49.06176758 C228.69691895 48.57047363 229.16629883 48.07917969 229.64990234 47.57299805 C236.10549853 40.84606331 242.86736054 34.77795244 250.22753906 29.06176758 C251.07131104 28.39540283 251.07131104 28.39540283 251.93212891 27.71557617 C274.05666773 10.28973703 310.8241309 -18.39219819 340.45410156 -16.48901367 C347.17374721 -15.15454883 351.07348274 -11.7731747 354.93359375 -6.18505859 C357.6590844 -1.45247549 359.32016999 3.73079929 361.10253906 8.87426758 C361.53526123 10.11039795 361.9679834 11.34652832 362.41381836 12.62011719 C372.46602597 41.67585363 378.19904031 71.50506424 381.22753906 102.06176758 C381.29956543 102.76140625 381.3715918 103.46104492 381.44580078 104.18188477 C384.52674097 135.51431096 382.14782289 167.74993899 376.56298828 198.61181641 C375.91542655 203.3412793 375.65218377 205.2764076 378.57128906 209.26098633 C379.61178897 210.4341236 380.66460228 211.59642044 381.72753906 212.74926758 C382.83685594 213.99555728 383.94492534 215.24295845 385.05175781 216.49145508 C385.59622559 217.09957031 386.14069336 217.70768555 386.70166016 218.33422852 C390.03776828 222.11123669 393.12552579 226.09239525 396.22753906 230.06176758 C397.10104004 230.94626587 397.10104004 230.94626587 397.9921875 231.84863281 C404.19514049 238.62142119 404.17701271 244.59634985 403.85253906 253.49926758 C403.82340118 254.87887765 403.795672 256.25851813 403.76928711 257.63818359 C402.43649171 312.34722746 385.38240374 367.31619023 349.22753906 409.06176758 C348.4115625 410.00793945 347.59558594 410.95411133 346.75488281 411.92895508 C338.29915659 421.5031636 329.32987366 430.23638404 319.22753906 438.06176758 C318.69064453 438.48039062 318.15375 438.89901367 317.60058594 439.33032227 C275.94170592 471.59084417 225.82092016 487.67655774 174.22753906 495.06176758 C173.47730469 495.17447998 172.72707031 495.28719238 171.95410156 495.40332031 C121.34078261 502.12238329 65.47152929 488.54450609 20.22753906 466.06176758 C19.43879395 465.67553223 18.65004883 465.28929687 17.83740234 464.89135742 C-4.47464449 453.88624326 -24.39135939 439.60580271 -42.34423828 422.42700195 C-43.62008669 421.20742173 -44.90835656 420.00086668 -46.19824219 418.79614258 C-89.05071121 377.69430729 -108.12375692 314.56268336 -109.34228516 256.59155273 C-109.37908544 255.2377581 -109.43380156 253.88433269 -109.50634766 252.53198242 C-109.92171127 244.60944788 -109.64656353 239.2220409 -104.51464844 232.93676758 C-102.95212415 231.294255 -101.37138341 229.66886952 -99.77246094 228.06176758 C-98.25390215 226.24377684 -96.75146711 224.41207887 -95.27246094 222.56176758 C-92.97687204 219.7105326 -90.67036181 216.95246325 -88.17089844 214.27661133 C-87.33816406 213.36008789 -86.50542969 212.44356445 -85.64746094 211.49926758 C-84.88175781 210.69360352 -84.11605469 209.88793945 -83.32714844 209.05786133 C-81.00088294 204.57483209 -81.93269713 200.91419366 -82.77246094 196.06176758 C-82.88686523 195.31596436 -83.00126953 194.57016113 -83.11914062 193.80175781 C-83.34651906 192.33220112 -83.58231984 190.8639263 -83.82592773 189.39697266 C-93.5455207 130.29467975 -92.49697506 43.85509945 -59.28417969 -8.27416992 C-44.24799019 -27.31223931 -16.10674439 -8.47110872 0 0 Z " fill="#C8C7C7" transform="translate(108.7724609375,15.938232421875)"/>
<path d="M0 0 C16.11165774 8.65536128 31.01132503 18.56268192 45.22753906 30.06176758 C46.145271 30.80378418 46.145271 30.80378418 47.08154297 31.56079102 C63.17219229 44.69834326 76.81625293 59.44370324 89.22753906 76.06176758 C89.97624268 75.92077637 90.72494629 75.77978516 91.49633789 75.63452148 C130.91254357 68.26379063 165.79748308 67.89381697 205.22753906 76.06176758 C205.88238281 75.20196289 206.53722656 74.3421582 207.21191406 73.45629883 C213.79666215 64.89441663 220.74182635 56.8452216 228.22753906 49.06176758 C228.69691895 48.57047363 229.16629883 48.07917969 229.64990234 47.57299805 C236.10549853 40.84606331 242.86736054 34.77795244 250.22753906 29.06176758 C251.07131104 28.39540283 251.07131104 28.39540283 251.93212891 27.71557617 C274.05666773 10.28973703 310.8241309 -18.39219819 340.45410156 -16.48901367 C347.17374721 -15.15454883 351.07348274 -11.7731747 354.93359375 -6.18505859 C357.6590844 -1.45247549 359.32016999 3.73079929 361.10253906 8.87426758 C361.53526123 10.11039795 361.9679834 11.34652832 362.41381836 12.62011719 C372.46602597 41.67585363 378.19904031 71.50506424 381.22753906 102.06176758 C381.29956543 102.76140625 381.3715918 103.46104492 381.44580078 104.18188477 C384.52674097 135.51431096 382.14782289 167.74993899 376.56298828 198.61181641 C375.91542655 203.3412793 375.65218377 205.2764076 378.57128906 209.26098633 C379.61178897 210.4341236 380.66460228 211.59642044 381.72753906 212.74926758 C382.83685594 213.99555728 383.94492534 215.24295845 385.05175781 216.49145508 C385.59622559 217.09957031 386.14069336 217.70768555 386.70166016 218.33422852 C390.03776828 222.11123669 393.12552579 226.09239525 396.22753906 230.06176758 C397.10104004 230.94626587 397.10104004 230.94626587 397.9921875 231.84863281 C404.19514049 238.62142119 404.17701271 244.59634985 403.85253906 253.49926758 C403.82340118 254.87887765 403.795672 256.25851813 403.76928711 257.63818359 C402.43649171 312.34722746 385.38240374 367.31619023 349.22753906 409.06176758 C348.4115625 410.00793945 347.59558594 410.95411133 346.75488281 411.92895508 C338.29915659 421.5031636 329.32987366 430.23638404 319.22753906 438.06176758 C318.69064453 438.48039062 318.15375 438.89901367 317.60058594 439.33032227 C275.94170592 471.59084417 225.82092016 487.67655774 174.22753906 495.06176758 C173.47730469 495.17447998 172.72707031 495.28719238 171.95410156 495.40332031 C121.34078261 502.12238329 65.47152929 488.54450609 20.22753906 466.06176758 C19.43879395 465.67553223 18.65004883 465.28929687 17.83740234 464.89135742 C-4.47464449 453.88624326 -24.39135939 439.60580271 -42.34423828 422.42700195 C-43.62008669 421.20742173 -44.90835656 420.00086668 -46.19824219 418.79614258 C-89.05071121 377.69430729 -108.12375692 314.56268336 -109.34228516 256.59155273 C-109.37908544 255.2377581 -109.43380156 253.88433269 -109.50634766 252.53198242 C-109.92171127 244.60944788 -109.64656353 239.2220409 -104.51464844 232.93676758 C-102.95212415 231.294255 -101.37138341 229.66886952 -99.77246094 228.06176758 C-98.25390215 226.24377684 -96.75146711 224.41207887 -95.27246094 222.56176758 C-92.97687204 219.7105326 -90.67036181 216.95246325 -88.17089844 214.27661133 C-87.33816406 213.36008789 -86.50542969 212.44356445 -85.64746094 211.49926758 C-84.88175781 210.69360352 -84.11605469 209.88793945 -83.32714844 209.05786133 C-81.00088294 204.57483209 -81.93269713 200.91419366 -82.77246094 196.06176758 C-82.88686523 195.31596436 -83.00126953 194.57016113 -83.11914062 193.80175781 C-83.34651906 192.33220112 -83.58231984 190.8639263 -83.82592773 189.39697266 C-93.5455207 130.29467975 -92.49697506 43.85509945 -59.28417969 -8.27416992 C-44.24799019 -27.31223931 -16.10674439 -8.47110872 0 0 Z M-47.77246094 17.06176758 C-54.05122774 36.74522175 -59.61783682 56.21881277 -62.95996094 76.62426758 C-63.1149707 77.56794189 -63.26998047 78.51161621 -63.4296875 79.48388672 C-66.20182428 97.38349536 -67.14101478 115.08855801 -67.08496094 133.18676758 C-67.0847998 134.25506805 -67.08463867 135.32336853 -67.08447266 136.42404175 C-67.06763892 152.48237429 -66.48690331 168.2010498 -63.77246094 184.06176758 C-60.44668792 182.65075113 -58.65991351 181.03604068 -56.42480469 178.21801758 C-55.81958984 177.46649414 -55.214375 176.7149707 -54.59082031 175.94067383 C-53.97013672 175.15563477 -53.34945312 174.3705957 -52.70996094 173.56176758 C-51.47280752 172.00670786 -50.23206569 170.45449445 -48.98730469 168.90551758 C-48.44195068 168.21651367 -47.89659668 167.52750977 -47.3347168 166.81762695 C-44.82879921 164.00116199 -43.15283895 163.1040318 -39.39746094 162.68676758 C-35.77246094 163.06176758 -35.77246094 163.06176758 -32.83496094 164.49926758 C-30.24154128 167.72139504 -29.97725536 169.65310166 -30.24121094 173.71801758 C-31.22727517 178.06830094 -33.86268611 180.7882709 -36.77246094 184.06176758 C-38.07325769 185.60546003 -39.37389088 187.14929355 -40.67163086 188.69555664 C-42.10052777 190.39275739 -43.53906482 192.0813786 -44.97949219 193.76879883 C-47.44883287 196.66920068 -49.86920205 199.60623376 -52.27246094 202.56176758 C-55.51259663 206.54563548 -58.81367895 210.46914736 -62.14746094 214.37426758 C-66.46842639 219.44473429 -70.65005804 224.60778321 -74.69311523 229.90307617 C-76.90259196 232.77806754 -79.13990438 235.50111069 -81.68652344 238.08520508 C-86.52968252 243.08548477 -89.40630675 246.88343862 -89.52246094 254.06176758 C-89.37908611 256.02520625 -89.23258079 257.98942899 -89.01074219 259.94555664 C-88.7617332 262.15704223 -88.59040195 264.36571395 -88.42871094 266.58520508 C-88.01881946 271.7628652 -87.42072629 276.9090512 -86.77246094 282.06176758 C-86.65418945 283.01873535 -86.53591797 283.97570312 -86.4140625 284.96166992 C-83.37649346 308.60137707 -77.06041159 331.5251601 -66.77246094 353.06176758 C-66.21220215 354.23594238 -66.21220215 354.23594238 -65.640625 355.43383789 C-57.79896285 371.59379943 -48.11703217 385.99388163 -35.77246094 399.06176758 C-34.66386407 400.37052777 -33.55955119 401.68293117 -32.45996094 402.99926758 C-20.42893949 416.7450553 -5.32203438 427.65467073 10.22753906 437.06176758 C10.82872559 437.42625 11.42991211 437.79073242 12.04931641 438.16625977 C46.68626599 458.92461146 85.46289681 469.70142693 125.22753906 475.06176758 C126.30044189 475.21971802 126.30044189 475.21971802 127.39501953 475.38085938 C159.09856099 479.84698561 195.12280776 473.23438995 225.22753906 463.06176758 C226.516521 462.64072754 226.516521 462.64072754 227.83154297 462.21118164 C281.78352695 444.5663902 330.88463713 412.18936517 357.49023438 360.61401367 C367.06681745 341.55024803 373.51885247 322.87165889 378.22753906 302.06176758 C378.41171387 301.25860107 378.59588867 300.45543457 378.78564453 299.62792969 C380.37164689 292.27471473 381.11407371 284.85311311 381.85253906 277.37426758 C381.98660156 276.11420898 382.12066406 274.85415039 382.25878906 273.5559082 C384.79836437 257.78809069 384.79836437 257.78809069 381.13769531 243.13989258 C379.78925724 241.66062954 379.78925724 241.66062954 378.29003906 240.31176758 C377.26935269 239.24516344 376.2498375 238.17743742 375.23144531 237.10864258 C374.46598389 236.34197266 374.46598389 236.34197266 373.68505859 235.55981445 C371.53849243 233.35356153 369.6438271 230.96843059 367.72753906 228.56176758 C364.42129833 224.49846277 361.05937478 220.48877449 357.66503906 216.49926758 C353.79562008 211.94951119 350.02675104 207.33659091 346.32128906 202.65161133 C344.30779988 200.16104541 342.24431013 197.72464394 340.15844727 195.29492188 C324.80619388 177.37042607 324.80619388 177.37042607 324.47753906 171.62426758 C325.22753906 168.06176758 325.22753906 168.06176758 326.66503906 165.56176758 C330.49989594 163.31697331 333.89828262 163.19278482 338.22753906 164.06176758 C340.4369815 165.7188494 341.56373623 166.93947362 343.22753906 169.06176758 C344.72190791 170.71271552 346.22247962 172.35805966 347.72753906 173.99926758 C350.28568155 176.85159645 352.80329467 179.71988708 355.22753906 182.68676758 C355.88753906 183.47051758 356.54753906 184.25426758 357.22753906 185.06176758 C357.55753906 185.06176758 357.88753906 185.06176758 358.22753906 185.06176758 C360.80740235 168.00677867 361.76086395 151.30006525 361.66503906 134.06176758 C361.66133301 132.85943481 361.65762695 131.65710205 361.65380859 130.41833496 C361.48317545 91.409271 355.09330759 53.9302355 342.22753906 17.06176758 C338.89989612 18.64967407 336.51260587 20.429986 333.79003906 22.93676758 C332.48292969 24.1375293 332.48292969 24.1375293 331.14941406 25.36254883 C330.18519531 26.25329102 329.22097656 27.1440332 328.22753906 28.06176758 C327.12944464 29.05621195 326.03045664 30.04967033 324.93066406 31.04223633 C323.80019248 32.0692904 322.66998107 33.09663091 321.54003906 34.12426758 C321.01804932 34.59396973 320.49605957 35.06367187 319.95825195 35.54760742 C315.70846852 39.44040637 311.96490009 43.68055998 308.22753906 48.06176758 C307.43174438 48.97454468 307.43174438 48.97454468 306.61987305 49.90576172 C295.97127936 62.15123205 286.86202895 75.33426892 278.22753906 89.06176758 C277.54675293 90.1373291 276.8659668 91.21289062 276.16455078 92.32104492 C275.51373535 93.38403809 274.86291992 94.44703125 274.19238281 95.54223633 C273.5993335 96.50411865 273.00628418 97.46600098 272.39526367 98.45703125 C271.05638658 100.92062788 271.05638658 100.92062788 271.32617188 103.2565918 C272.45489877 105.5171028 273.50036365 106.21367433 275.68457031 107.46411133 C276.38517578 107.87983398 277.08578125 108.29555664 277.80761719 108.72387695 C278.54431641 109.14475586 279.28101563 109.56563477 280.04003906 109.99926758 C289.17972826 115.25560439 289.17972826 115.25560439 292.22753906 120.06176758 C292.93417316 124.45860197 292.74684141 126.29904225 290.22753906 129.99926758 C287.08620943 132.1589317 285.26797921 132.60092181 281.49365234 132.4921875 C276.9578511 131.63066869 273.41917629 128.81165496 269.66503906 126.24926758 C258.64697063 119.09110708 247.24306726 113.35000608 235.22753906 108.06176758 C234.43782715 107.71388184 233.64811523 107.36599609 232.83447266 107.00756836 C220.35890455 101.61528746 207.47251451 98.02857705 194.22753906 95.06176758 C193.14633789 94.81620117 192.06513672 94.57063477 190.95117188 94.31762695 C154.32868321 86.27828539 116.89278173 88.50045654 81.22753906 100.06176758 C80.48552246 100.29025391 79.74350586 100.51874023 78.97900391 100.75415039 C58.71161131 107.02224126 38.66742404 116.05635361 21.40112305 128.45507812 C16.88846796 131.56501573 13.6558304 132.61806073 8.15209961 132.44555664 C6.22753906 132.06176758 6.22753906 132.06176758 3.66503906 129.99926758 C1.86275007 126.31632921 1.64796138 124.11881133 2.22753906 120.06176758 C5.06822692 115.75976433 8.31289694 113.5187257 12.72753906 110.93676758 C16.37219377 108.78842753 19.90387522 106.68485522 23.22753906 104.06176758 C22.70793322 98.88608587 20.11192285 95.11984283 17.41503906 90.81176758 C16.92729004 90.02471436 16.43954102 89.23766113 15.93701172 88.42675781 C5.72904664 72.13983741 -5.80373129 57.24431921 -18.77246094 43.06176758 C-20.08923828 41.58836914 -20.08923828 41.58836914 -21.43261719 40.08520508 C-27.20572201 33.64954587 -33.20116286 27.70088501 -39.77246094 22.06176758 C-40.39507812 21.51262695 -41.01769531 20.96348633 -41.65917969 20.39770508 C-44.32979122 17.83373298 -44.32979122 17.83373298 -47.77246094 17.06176758 Z " fill="#010000" transform="translate(108.7724609375,15.938232421875)"/>
<path d="M0 0 C1.64908124 0.27785834 3.29829519 0.55493009 4.94763184 0.83126831 C9.28872998 1.5608098 13.62792224 2.30112707 17.96679688 3.04376221 C22.25278841 3.77538813 26.54052939 4.49659559 30.828125 5.21875 C38.43091485 6.50092793 46.03183873 7.79376853 53.63173103 9.09300423 C58.58942824 9.9403953 63.54774897 10.78397679 68.50676346 11.6236248 C71.67072934 12.15962778 74.83436657 12.697553 77.99794006 13.23586655 C79.46148598 13.4845382 80.92515447 13.73248984 82.38896179 13.97961807 C90.63024248 15.37176798 98.83561586 16.87833524 107.01670837 18.59361267 C136.85335283 24.6370371 164.00383955 20.77109351 193.46772766 15.01271057 C202.59724407 13.23870141 211.76150899 11.73732971 220.94699097 10.28573608 C241.8974218 6.97271323 262.77853747 3.29324561 283.65071106 -0.47848511 C306.30132014 -4.56635449 306.30132014 -4.56635449 312.078125 -1.62109375 C316.6952473 2.90097015 316.26630118 8.16683907 316.33520508 14.16455078 C316.40328721 42.66956692 312.78156253 74.07724514 293.09375 96.3671875 C291.98 97.883125 291.98 97.883125 290.84375 99.4296875 C280.18228809 112.01370812 262.9007491 118.06237822 247.09375 120.3671875 C217.58701022 122.06647945 194.60659523 117.8410927 171.7734375 98.390625 C163.07144772 90.29504566 156.743246 80.21601151 152.09375 69.3671875 C144.83375 69.3671875 137.57375 69.3671875 130.09375 69.3671875 C129.289375 71.0996875 128.485 72.8321875 127.65625 74.6171875 C117.94245429 93.97637191 101.58293526 109.07831767 81.09375 116.3671875 C56.66553102 123.272076 29.12009464 123.57115033 6.41015625 111.40234375 C-13.21234168 99.36074019 -24.21618979 79.8140299 -29.875 57.984375 C-33.05891272 44.44095367 -34.16229176 30.68924925 -34.28125 16.8046875 C-34.29518799 15.75216797 -34.30912598 14.69964844 -34.32348633 13.61523438 C-34.28932215 8.15961458 -34.11093932 4.0087211 -30.90625 -0.6328125 C-22.6862561 -6.11280843 -9.24986511 -1.59648114 0 0 Z " fill="#000000" transform="translate(114.90625,192.6328125)"/>
<path d="M0 0 C2 3 2 3 1.91796875 5.30078125 C0.71605954 8.83490579 -1.33603151 11.35712738 -3.6875 14.1875 C-4.69088278 15.42905866 -5.69344653 16.67127954 -6.6953125 17.9140625 C-7.2305957 18.5730957 -7.76587891 19.23212891 -8.31738281 19.91113281 C-11.2809953 23.59027797 -14.16856783 27.32847041 -17.0625 31.0625 C-18.245984 32.58862679 -19.4295763 34.11466958 -20.61328125 35.640625 C-21.18256348 36.37474609 -21.7518457 37.10886719 -22.33837891 37.86523438 C-23.89859274 39.86971715 -25.46881695 41.8658305 -27.04296875 43.859375 C-27.9453303 45.01040271 -28.84767521 46.16144347 -29.75 47.3125 C-30.52859375 48.29863281 -31.3071875 49.28476562 -32.109375 50.30078125 C-34.66784619 53.88539812 -34.66784619 53.88539812 -36 58 C-35.00851854 60.60644052 -34.01686984 62.68656931 -32.625 65.0625 C-32.07767212 66.04234863 -32.07767212 66.04234863 -31.51928711 67.04199219 C-28.46967306 72.4139092 -25.10201892 77.54466175 -21.56640625 82.609375 C-20 85 -20 85 -19 88 C-14.93697346 86.54313076 -10.87467248 85.08424874 -6.8125 83.625 C-5.66201172 83.2125 -4.51152344 82.8 -3.32617188 82.375 C-1.65844727 81.77558594 -1.65844727 81.77558594 0.04296875 81.1640625 C1.06414795 80.79748535 2.08532715 80.4309082 3.13745117 80.05322266 C6.81277904 78.70095277 10.38933885 77.29958511 13.90625 75.57421875 C19.8051728 73.03812883 26.23772381 72.07681797 32.5 70.8125 C33.80609838 70.53762581 35.11208896 70.26223893 36.41796875 69.98632812 C51.59027189 66.87546022 51.59027189 66.87546022 56.8125 69.3125 C59 71 59 71 61 74 C61.79093544 81.00542819 61.79093544 81.00542819 58.90625 84.6328125 C55.56424424 87.35493009 53.25644294 88.08463785 49.0625 89 C48.38227783 89.16258301 47.70205566 89.32516602 47.0012207 89.49267578 C42.83672156 90.46934503 38.67296426 91.21957819 34.4453125 91.8671875 C24.69937882 93.49716655 17.34273084 94.76976375 11.25 103.0625 C8.85457565 106.53821377 6.79259377 110.17643563 5 114 C18.6448356 127.13664805 33.62772271 137.52150341 50 147 C50.66660645 147.38897461 51.33321289 147.77794922 52.02001953 148.17871094 C72.56837008 160.0277973 95.09202464 168.10926503 118 174 C118.89428711 174.23412598 119.78857422 174.46825195 120.70996094 174.70947266 C188.03374838 192.06619331 261.27472859 181.06656593 321.60791016 146.42773438 C333.69258858 139.21491549 345.44906465 131.33695294 356 122 C356.87527344 121.23300781 357.75054687 120.46601563 358.65234375 119.67578125 C360.78048473 117.79685246 362.89636027 115.90626118 365 114 C364.15083393 112.68425917 363.29525947 111.37265481 362.4375 110.0625 C361.96183594 109.33160156 361.48617188 108.60070312 360.99609375 107.84765625 C360.33738281 106.90792969 359.67867188 105.96820313 359 105 C358.58693604 104.27852783 358.17387207 103.55705566 357.74829102 102.8137207 C353.85536723 96.74597916 350.09514793 94.7959169 343.09397888 93.22444153 C341.08737286 92.81345291 339.07622351 92.43688172 337.0625 92.0625 C335.7161091 91.78653772 334.37039317 91.50726075 333.02539062 91.22460938 C330.46941874 90.69155687 327.91206281 90.17603457 325.3503418 89.67016602 C314.90650792 87.58109482 314.90650792 87.58109482 311.5625 85.4375 C309.23373561 81.80462756 308.65579203 78.29112604 309 74 C310.76503314 71.07856583 311.95847635 69.52076183 315 68 C323.11141879 67.47173533 330.61914923 69.0829458 338.5 70.875 C339.51129974 71.10092834 339.51129974 71.10092834 340.54302979 71.3314209 C353.39772282 74.23904357 365.32743397 78.66926058 377.41308594 83.92773438 C381.21356562 85.50301814 385.07850114 86.7599367 389 88 C389.2897168 87.40775635 389.57943359 86.8155127 389.87792969 86.20532227 C391.50064039 83.01603902 393.39163841 79.99275284 395.25 76.9375 C396.45444485 74.92870609 397.65551754 72.91792784 398.85595703 70.90673828 C399.89196621 69.18005632 400.94316557 67.46251091 401.99609375 65.74609375 C402.55425781 64.79863281 403.11242187 63.85117187 403.6875 62.875 C404.18636719 62.04742187 404.68523437 61.21984375 405.19921875 60.3671875 C406.21891005 58.02247493 406.21891005 58.02247493 405.48046875 55.62109375 C403.52810931 52.16454182 401.15992184 49.2326957 398.625 46.1875 C393.74459106 40.21253049 389.04363358 34.13720559 384.45629883 27.93481445 C381.97900073 24.59755344 379.46503055 21.30938931 376.8359375 18.08984375 C376.07422241 17.15120483 376.07422241 17.15120483 375.29711914 16.19360352 C374.33741659 15.0180034 373.36841385 13.84990791 372.38842773 12.69116211 C369.54049614 9.19178812 368.23380385 6.52670232 368 2 C368.9375 0.0625 368.9375 0.0625 371 -1 C378.4161405 -0.76427915 385.05532863 1.9679198 391.92651367 4.55541992 C393.92631147 5.30828783 395.93034709 6.04876538 397.93554688 6.78710938 C404.73190575 9.30457198 411.41973206 11.95906388 418 15 C415.63365056 39.64527766 407.661596 62.79051395 397 85 C396.68981934 85.64775391 396.37963867 86.29550781 396.06005859 86.96289062 C388.84458796 101.78303232 379.30493911 115.03136583 368 127 C366.91243658 128.28810702 365.82898087 129.57969534 364.75 130.875 C338.74517033 160.42594281 302.52934072 177.47710318 266 190 C265.26458984 190.25910156 264.52917969 190.51820313 263.77148438 190.78515625 C245.70230922 197.14114751 226.06304853 201.20774757 207 203 C205.93394531 203.10957031 204.86789062 203.21914063 203.76953125 203.33203125 C148.05271827 208.2309304 86.13309229 191.69963944 40 160 C39.45537109 159.62907227 38.91074219 159.25814453 38.34960938 158.87597656 C31.23462523 154.00844882 24.53285551 148.96025474 18.21875 143.06640625 C16.23694207 141.22067316 14.20396784 139.48389326 12.125 137.75 C-22.43674906 107.43023624 -43.07930707 60.06318789 -48 15 C-37.03313314 10.21402082 -25.79576889 6.13200854 -14.58032227 1.97387695 C-12.83540856 1.3153037 -11.10743559 0.6102935 -9.39819336 -0.13598633 C-5.97075854 -1.37081192 -3.49193495 -0.85651235 0 0 Z " fill="#ADADAD" transform="translate(71,288)"/>
<path d="M0 0 C12.71256446 38.64559844 19.32321614 76.31630897 19.4375 117 C19.44703201 118.73866333 19.44703201 118.73866333 19.45675659 120.51245117 C19.51145414 136.5574439 18.4001258 152.13322166 16 168 C12.29786205 165.11373696 9.36930692 162.23873093 6.4375 158.5625 C5.69371094 157.63566406 4.94992187 156.70882812 4.18359375 155.75390625 C2.72678601 153.91660847 1.28143479 152.0701688 -0.15234375 150.21484375 C-1.80876083 147.92881034 -1.80876083 147.92881034 -4 147 C-5.47765166 146.92990267 -6.95834814 146.91564061 -8.4375 146.9375 C-9.21996094 146.94652344 -10.00242187 146.95554688 -10.80859375 146.96484375 C-11.53175781 146.97644531 -12.25492187 146.98804688 -13 147 C-13.99 147 -14.98 147 -16 147 C-18.03188596 144.85820208 -19.89358162 142.72300842 -21.75 140.4375 C-22.83535986 139.13905144 -23.92258218 137.84215729 -25.01171875 136.546875 C-25.53169434 135.92619141 -26.05166992 135.30550781 -26.58740234 134.66601562 C-31.58367135 128.77342321 -37.31053172 124.00568113 -43.3515625 119.2109375 C-46.06581292 116.94505883 -48.53685332 114.53428449 -51 112 C-50.67 111.34 -50.34 110.68 -50 110 C-49.6473081 106.26146586 -49.45781284 103.87152631 -51.47265625 100.6328125 C-54.84316937 97.12164427 -58.6321943 94.74491001 -62.75 92.1875 C-63.54277344 91.68541016 -64.33554687 91.18332031 -65.15234375 90.66601562 C-67.0967745 89.43610461 -69.04589742 88.21446265 -71 87 C-66.21419103 65.28934622 -44.55038001 43.00780876 -29.97265625 27.16015625 C-28.11526426 25.12622007 -26.33811247 23.04269251 -24.5625 20.9375 C-20.42998872 16.19417874 -15.72220766 12.14090247 -11 8 C-10.15179688 7.22527344 -9.30359375 6.45054688 -8.4296875 5.65234375 C-7.22699219 4.55599609 -7.22699219 4.55599609 -6 3.4375 C-5.278125 2.77621094 -4.55625 2.11492188 -3.8125 1.43359375 C-2 0 -2 0 0 0 Z " fill="#ED7777" transform="translate(451,33)"/>
<path d="M0 0 C4.73295436 2.29421135 8.12171357 5.47149573 12 9 C12.49242188 9.4419873 12.98484375 9.88397461 13.4921875 10.33935547 C20.7728625 16.87642495 27.62232532 23.56124109 34 31 C34.84949219 31.96164063 35.69898438 32.92328125 36.57421875 33.9140625 C48.25107902 47.25303442 57.92841306 61.93479614 66.91064453 77.18945312 C67.84727393 78.74616393 68.85305937 80.26088942 69.87109375 81.765625 C71 84 71 84 70.78662109 85.98950195 C69.80139227 88.50761474 68.86802613 89.0712711 66.54296875 90.40234375 C65.49206055 91.02592773 65.49206055 91.02592773 64.41992188 91.66210938 C63.68322266 92.08298828 62.94652344 92.50386719 62.1875 92.9375 C55.18469527 96.91804696 55.18469527 96.91804696 50 103 C49.67329685 106.7897565 49.79809099 109.39427296 51 113 C50.37996094 113.48726563 49.75992188 113.97453125 49.12109375 114.4765625 C36.94841051 124.22179654 25.40965961 134.50478805 16 147 C15.40960938 146.84273437 14.81921875 146.68546875 14.2109375 146.5234375 C10.9524961 145.75200438 8.34368103 145.65410196 5 146 C-0.88956779 149.75929859 -4.76777637 155.5286511 -9 161 C-10.61876992 163.06729559 -12.24750531 165.04132946 -14 167 C-14.66 167 -15.32 167 -16 167 C-21.35346161 135.71926822 -21.76528747 101.01474804 -16.44873047 69.71630859 C-15.97081692 66.82334552 -15.5763873 63.9262548 -15.19140625 61.01953125 C-12.31561088 40.1897571 -6.8600097 19.86164378 0 0 Z " fill="#ED7777" transform="translate(61,33)"/>
<path d="M0 0 C1.8881543 -0.01740234 1.8881543 -0.01740234 3.81445312 -0.03515625 C14.82839448 -0.00103976 28.97836107 0.75489605 37.4609375 8.82421875 C42.24289502 14.31103128 43.39656394 18.41619865 43.25390625 25.55859375 C42.36816322 33.44280026 37.26776165 39.64665231 31.30078125 44.53515625 C14.5596828 57.375 14.5596828 57.375 9.9375 57.375 C10.59833305 62.66166436 12.20512234 65.02126762 16.3125 68.4375 C28.83357291 77.73372104 42.28954755 82.73413644 57.9375 81.375 C63.59157473 80.45907512 69.26175121 79.49785887 74.5625 77.2734375 C78.47957995 75.79164739 81.97265292 76.14898038 85.9375 77.375 C89.23475128 79.71277401 90.73403968 82.39839045 91.5625 86.375 C90.6964365 90.53210479 89.335047 92.91790461 85.9375 95.375 C81.38463122 97.45910009 76.73801507 98.96776936 71.9375 100.375 C71.1228125 100.62378906 70.308125 100.87257813 69.46875 101.12890625 C48.20829661 106.48144997 27.92181506 99.92820522 9.69140625 89.125 C6.49639071 87.09469225 3.72397532 84.92926904 0.9375 82.375 C-2.18058981 83.82065982 -4.80312634 85.58306349 -7.5625 87.625 C-24.42187669 99.43636564 -43.91972256 105.06601602 -64.42285156 102.02490234 C-73.56271723 100.38309042 -81.88250132 98.00099907 -89.5625 92.625 C-91.39371704 89.87817445 -91.6198578 87.61995304 -91.4609375 84.34375 C-90.83787793 81.26510271 -89.27539435 79.52280922 -87.0625 77.375 C-83.47896769 75.58323384 -79.69498163 75.92445847 -75.8828125 76.9765625 C-73.60245883 77.75772172 -71.3311501 78.56051091 -69.0625 79.375 C-54.83926811 84.03433458 -40.10880455 81.56694515 -26.875 75.1875 C-20.90199228 72.04869107 -15.37107714 68.65407347 -11.0625 63.375 C-9.86369245 60.08560456 -9.86369245 60.08560456 -10.0625 57.375 C-10.78050781 57.10816406 -11.49851562 56.84132813 -12.23828125 56.56640625 C-24.45965602 51.41077789 -37.04358373 41.41283254 -43.0625 29.375 C-43.7884275 22.63424466 -43.89489463 16.700887 -39.71875 11.12109375 C-29.3057478 0.1432353 -14.27523488 -0.13197444 0 0 Z " fill="#020202" transform="translate(256.0625,290.625)"/>
<path d="M0 0 C12.71256446 38.64559844 19.32321614 76.31630897 19.4375 117 C19.44703201 118.73866333 19.44703201 118.73866333 19.45675659 120.51245117 C19.51145414 136.5574439 18.4001258 152.13322166 16 168 C12.29786205 165.11373696 9.36930692 162.23873093 6.4375 158.5625 C5.69371094 157.63566406 4.94992187 156.70882812 4.18359375 155.75390625 C2.77103061 153.97240891 1.38593485 152.16863148 0.03515625 150.33984375 C-1.81995036 147.836511 -1.81995036 147.836511 -4.58520508 147.01171875 C-7 145 -7 145 -7.47093201 142.93739319 C-7.66256711 140.10606199 -7.69163228 137.31051342 -7.671875 134.47265625 C-7.68462463 133.41453232 -7.69737427 132.35640839 -7.71051025 131.26622009 C-7.74689318 127.86471317 -7.74951821 124.46418416 -7.75 121.0625 C-7.77897551 116.63665123 -7.81974569 112.210921 -7.859375 107.78515625 C-7.8676532 106.69547546 -7.8759314 105.60579468 -7.88446045 104.48309326 C-8.01896213 89.18632311 -8.75129756 74.22726855 -11.25 59.125 C-11.46975553 57.75156388 -11.6893988 56.37810978 -11.90893555 55.00463867 C-13.40696618 45.79995767 -15.23308652 36.68946916 -17.47558594 27.63525391 C-19.62517416 18.91747943 -19.62517416 18.91747943 -19 16 C-17.15875853 13.76525557 -15.41178931 11.89404749 -13.3125 9.9375 C-12.51682617 9.1630957 -12.51682617 9.1630957 -11.70507812 8.37304688 C-3.0120422 0 -3.0120422 0 0 0 Z " fill="#C7C6C6" transform="translate(451,33)"/>
<path d="M0 0 C3.90845161 1.88043838 6.70252454 4.23182703 9.890625 7.15625 C11.92961891 9.01906155 11.92961891 9.01906155 14.109375 10.40625 C16.17490069 11.82733168 17.53376328 12.96205687 19 15 C19.45811595 22.13436288 17.34466328 29.43956003 15.625 36.3125 C12.97854895 47.47593662 11.25220831 58.60148743 10 70 C9.90090332 70.85577637 9.80180664 71.71155273 9.69970703 72.59326172 C8.39604344 84.25588456 7.95001238 95.84016417 7.8671875 107.56640625 C7.85634125 108.68777985 7.845495 109.80915344 7.83432007 110.96450806 C7.77920039 116.68977888 7.75420029 122.4122093 7.78076172 128.13769531 C7.76657918 130.2753995 7.751169 132.41309599 7.734375 134.55078125 C7.74983368 135.54453262 7.76529236 136.538284 7.78121948 137.56214905 C7.74373796 140.17652101 7.65845623 142.4693202 7 145 C4.13232422 147.46191406 4.13232422 147.46191406 1 149 C-0.61986378 150.50008183 -0.61986378 150.50008183 -1.8515625 152.05859375 C-2.31046875 152.60966797 -2.769375 153.16074219 -3.2421875 153.72851562 C-3.69851562 154.29248047 -4.15484375 154.85644531 -4.625 155.4375 C-5.0890625 155.99759766 -5.553125 156.55769531 -6.03125 157.13476562 C-8.1440719 159.69223508 -10.20356142 162.26793861 -12.2109375 164.91015625 C-12.80132812 165.59980469 -13.39171875 166.28945312 -14 167 C-14.66 167 -15.32 167 -16 167 C-21.35346161 135.71926822 -21.76528747 101.01474804 -16.44873047 69.71630859 C-15.97081692 66.82334552 -15.5763873 63.9262548 -15.19140625 61.01953125 C-12.31561088 40.1897571 -6.8600097 19.86164378 0 0 Z " fill="#C7C6C6" transform="translate(61,33)"/>
<path d="M0 0 C2 3 2 3 1.91796875 5.30078125 C0.71605954 8.83490579 -1.33603151 11.35712738 -3.6875 14.1875 C-4.69088278 15.42905866 -5.69344653 16.67127954 -6.6953125 17.9140625 C-7.2305957 18.5730957 -7.76587891 19.23212891 -8.31738281 19.91113281 C-11.2809953 23.59027797 -14.16856783 27.32847041 -17.0625 31.0625 C-18.245984 32.58862679 -19.4295763 34.11466958 -20.61328125 35.640625 C-21.18256348 36.37474609 -21.7518457 37.10886719 -22.33837891 37.86523438 C-23.89859274 39.86971715 -25.46881695 41.8658305 -27.04296875 43.859375 C-27.9453303 45.01040271 -28.84767521 46.16144347 -29.75 47.3125 C-30.52859375 48.29863281 -31.3071875 49.28476562 -32.109375 50.30078125 C-34.66784619 53.88539812 -34.66784619 53.88539812 -36 58 C-35.00851854 60.60644052 -34.01686984 62.68656931 -32.625 65.0625 C-32.07767212 66.04234863 -32.07767212 66.04234863 -31.51928711 67.04199219 C-28.46967306 72.4139092 -25.10201892 77.54466175 -21.56640625 82.609375 C-20 85 -20 85 -19 88 C-14.93697346 86.54313076 -10.87467248 85.08424874 -6.8125 83.625 C-5.66201172 83.2125 -4.51152344 82.8 -3.32617188 82.375 C-1.65844727 81.77558594 -1.65844727 81.77558594 0.04296875 81.1640625 C1.06414795 80.79748535 2.08532715 80.4309082 3.13745117 80.05322266 C6.81277904 78.70095277 10.38933885 77.29958511 13.90625 75.57421875 C19.8051728 73.03812883 26.23772381 72.07681797 32.5 70.8125 C33.80609838 70.53762581 35.11208896 70.26223893 36.41796875 69.98632812 C51.59027189 66.87546022 51.59027189 66.87546022 56.8125 69.3125 C59 71 59 71 61 74 C61.79093544 81.00542819 61.79093544 81.00542819 58.90625 84.6328125 C55.56424424 87.35493009 53.25644294 88.08463785 49.0625 89 C48.38227783 89.16258301 47.70205566 89.32516602 47.0012207 89.49267578 C42.83672156 90.46934503 38.67296426 91.21957819 34.4453125 91.8671875 C21.30396256 93.99159452 21.30396256 93.99159452 11.6875 102.5625 C10.45359366 104.39317539 9.28435547 106.24346037 8.15136719 108.13818359 C6.25158998 111.21021519 4.01838483 114.0194338 1.8125 116.875 C0.53998769 118.58208306 -0.73152837 120.28991232 -2 122 C-12.29957675 112.15696477 -19.46282477 99.53832006 -26 87 C-26.34272949 86.34725098 -26.68545898 85.69450195 -27.03857422 85.02197266 C-38.24518417 63.36515869 -45.35670995 39.20697205 -48 15 C-37.03313314 10.21402082 -25.79576889 6.13200854 -14.58032227 1.97387695 C-12.83540856 1.3153037 -11.10743559 0.6102935 -9.39819336 -0.13598633 C-5.97075854 -1.37081192 -3.49193495 -0.85651235 0 0 Z " fill="#909090" transform="translate(71,288)"/>
<path d="M0 0 C3.21559627 1.13595009 6.41561185 2.30018875 9.60693359 3.50195312 C11.60673139 4.25482104 13.61076701 4.99529858 15.6159668 5.73364258 C22.41232568 8.25110519 29.10015199 10.90559709 35.68041992 13.9465332 C33.31407048 38.59181087 25.34201593 61.73704715 14.68041992 83.9465332 C14.37023926 84.59428711 14.06005859 85.24204102 13.74047852 85.90942383 C7.61011237 98.50082633 -0.05822779 111.30423873 -10.31958008 120.9465332 C-12.52910843 118.11413002 -14.7369775 115.28043752 -16.94458008 112.4465332 C-17.56204102 111.65504883 -18.17950195 110.86356445 -18.81567383 110.0480957 C-19.42797852 109.26176758 -20.0402832 108.47543945 -20.67114258 107.6652832 C-21.29778809 106.87782715 -21.92443359 106.09037109 -22.57006836 105.27905273 C-24.31958008 102.9465332 -24.31958008 102.9465332 -25.59643555 100.70385742 C-28.6130006 95.63241154 -31.48994332 94.22938548 -37.18676758 92.7043457 C-39.8462556 92.10372055 -42.51677779 91.58317443 -45.19458008 91.0715332 C-46.54546237 90.79065348 -47.89573394 90.50681961 -49.24536133 90.2199707 C-51.8124325 89.67796188 -54.38099921 89.15117246 -56.953125 88.6328125 C-67.47520161 86.48780145 -67.47520161 86.48780145 -70.75708008 84.3840332 C-73.08584446 80.75116076 -73.66378805 77.23765924 -73.31958008 72.9465332 C-71.55454693 70.02509903 -70.36110373 68.46729503 -67.31958008 66.9465332 C-59.20816128 66.41826853 -51.70043085 68.029479 -43.81958008 69.8215332 C-43.14538025 69.9721521 -42.47118042 70.122771 -41.77655029 70.2779541 C-28.92185726 73.18557677 -16.9921461 77.61579378 -4.90649414 82.87426758 C-1.10601446 84.44955134 2.75892106 85.70646991 6.68041992 86.9465332 C6.97013672 86.35428955 7.25985352 85.7620459 7.55834961 85.15185547 C9.18106031 81.96257222 11.07205833 78.93928604 12.93041992 75.8840332 C14.13486477 73.87523929 15.33593746 71.86446105 16.53637695 69.85327148 C17.57238613 68.12658952 18.6235855 66.40904412 19.67651367 64.69262695 C20.23467773 63.74516602 20.7928418 62.79770508 21.36791992 61.8215332 C21.86678711 60.99395508 22.3656543 60.16637695 22.87963867 59.3137207 C23.89932998 56.96900814 23.89932998 56.96900814 23.16088867 54.56762695 C21.20852924 51.11107502 18.84034176 48.17922891 16.30541992 45.1340332 C11.42501099 39.15906369 6.72405351 33.08373879 2.13671875 26.88134766 C-0.34057935 23.54408664 -2.85454952 20.25592251 -5.48364258 17.03637695 C-6.24535767 16.09773804 -6.24535767 16.09773804 -7.02246094 15.14013672 C-7.98216349 13.9645366 -8.95116623 12.79644111 -9.93115234 11.63769531 C-12.77908394 8.13832132 -14.08577623 5.47323553 -14.31958008 0.9465332 C-11.70546651 -4.45596816 -4.48390898 -1.42296589 0 0 Z " fill="#909090" transform="translate(453.319580078125,289.053466796875)"/>
<path d="M0 0 C0.1344938 9.98446866 -0.21494111 19.79001686 -1.05859375 29.74609375 C-1.16877941 31.09550634 -1.27847412 32.44495909 -1.38771057 33.79444885 C-1.615241 36.59041454 -1.84661842 39.38602198 -2.08129883 42.18139648 C-2.38030971 45.74341484 -2.67245787 49.30595266 -2.96211147 52.86874294 C-3.24194625 56.30721848 -3.52513198 59.74541564 -3.80859375 63.18359375 C-3.91280136 64.45142197 -4.01700897 65.71925018 -4.12437439 67.02549744 C-5.57189925 84.27898821 -5.57189925 84.27898821 -7.1875 87 C-10.04305427 88.57547822 -11.80444894 88.58693795 -15 88 C-19.55473527 82.47617212 -21.92136237 75.5967832 -24.6875 69.0625 C-25.53056454 67.08857793 -26.37572492 65.11556184 -27.22105408 63.14260864 C-27.82626735 61.72987068 -28.4307935 60.31683817 -29.03468323 58.90353394 C-31.53452313 53.06048232 -34.07795342 47.23714584 -36.6328125 41.41796875 C-37.41707416 39.62947617 -38.20133523 37.84098333 -38.9855957 36.05249023 C-40.14732154 33.40378936 -41.31005379 30.75555365 -42.47592163 28.1086731 C-43.56668638 25.63117791 -44.65293324 23.15174691 -45.73828125 20.671875 C-46.06889557 19.92427414 -46.39950989 19.17667328 -46.74014282 18.40641785 C-49 13.22755627 -49 13.22755627 -49 11 C-49.66 10.67 -50.32 10.34 -51 10 C-42.1496616 7.16599182 -33.23032959 5.13037083 -24.125 3.3125 C-23.05580322 3.09827393 -21.98660645 2.88404785 -20.88500977 2.66333008 C-13.92828458 1.30066137 -7.11051229 0 0 0 Z " fill="#909090" transform="translate(237,107)"/>
<path d="M0 0 C17.46445664 1.58578101 34.23237047 4.85756223 51 10 C50.34 10.33 49.68 10.66 49 11 C48.23403158 12.79398511 48.23403158 12.79398511 47.63110352 14.97021484 C46.05257986 19.97486847 44.04854753 24.6925054 41.90234375 29.4765625 C41.51148087 30.35722885 41.12061798 31.2378952 40.71791077 32.14524841 C39.46172453 34.97360901 38.19986573 37.79939273 36.9375 40.625 C35.21590086 44.49019784 33.49646162 48.35635429 31.77734375 52.22265625 C31.35875092 53.16300217 30.94015808 54.10334808 30.50888062 55.07218933 C28.17553293 60.32220718 25.8766694 65.5838624 23.62890625 70.87109375 C22.94163452 72.48540283 22.94163452 72.48540283 22.24047852 74.13232422 C21.43796818 76.02796072 20.64240313 77.92655898 19.85522461 79.82861328 C19.51112549 80.63927246 19.16702637 81.44993164 18.8125 82.28515625 C18.53019531 82.96457275 18.24789063 83.64398926 17.95703125 84.34399414 C17 86 17 86 14 88 C11.20622981 88.34922127 9.68183369 88.51480105 7.39648438 86.78930664 C5.60623661 84.49547345 5.45108665 82.94605875 5.15625 80.05859375 C5.04579346 79.02049561 4.93533691 77.98239746 4.8215332 76.9128418 C4.71542725 75.765979 4.60932129 74.61911621 4.5 73.4375 C4.32053833 71.63116089 4.32053833 71.63116089 4.13745117 69.78833008 C3.03577989 58.26838469 2.1620131 46.72837486 1.3125 35.1875 C1.21243652 33.85076736 1.21243652 33.85076736 1.11035156 32.48703003 C0.30693061 21.63497641 -0.19529855 10.88401916 0 0 Z " fill="#919191" transform="translate(275,107)"/>
<path d="M0 0 C0.99 0.495 0.99 0.495 2 1 C1.59273682 1.39678955 1.18547363 1.7935791 0.76586914 2.20239258 C-7.33267197 10.12043299 -15.01051748 18.069677 -22 27 C-22.91499907 28.10532964 -23.8331579 29.20804871 -24.75390625 30.30859375 C-37.25166246 45.36369429 -47.28074061 62.0625999 -57 79 C-63.27444779 76.97607539 -69.42984439 74.73023007 -75.5625 72.3125 C-76.38041016 71.99216797 -77.19832031 71.67183594 -78.04101562 71.34179688 C-80.02813622 70.56321746 -82.01418427 69.78190155 -84 69 C-82.10482677 64.95809153 -79.47084243 61.78983628 -76.5625 58.4375 C-76.02826416 57.81979736 -75.49402832 57.20209473 -74.94360352 56.56567383 C-66.707388 47.13844588 -57.86965406 38.71492407 -48 31 C-46.74339401 29.99100443 -45.48689006 28.98188178 -44.23046875 27.97265625 C-33.71328918 19.62793943 -22.64854049 12.65114091 -11 6 C-9.78637314 5.29441735 -8.57282161 4.58870511 -7.359375 3.8828125 C-1.98031595 0.82716901 -1.98031595 0.82716901 0 0 Z " fill="#797979" transform="translate(419,31)"/>
<path d="M0 0 C29.16756724 10.55367244 73.21514148 41.32098234 87 70 C83.81484616 71.29750499 80.62647921 72.58692873 77.4375 73.875 C76.54224609 74.23980469 75.64699219 74.60460937 74.72460938 74.98046875 C69.86252314 76.93955111 65.07356646 78.67767129 60 80 C59.49569458 79.12601563 59.49569458 79.12601563 58.98120117 78.234375 C48.75214171 60.56489459 37.95988688 43.78912643 25 28 C24.52449707 27.42008301 24.04899414 26.84016602 23.55908203 26.24267578 C17.39969944 18.78268183 10.94970451 11.74329586 4.01220703 4.99780273 C2.65956713 3.68067119 1.32748886 2.34247664 0 1 C0 0.67 0 0.34 0 0 Z " fill="#797979" transform="translate(90,30)"/>
<path d="M0 0 C4.68435816 1.4131984 8.90058789 3.36201831 13.1875 5.6875 C13.83662354 6.03619141 14.48574707 6.38488281 15.15454102 6.74414062 C20.94865662 9.89511388 26.50781831 13.34615771 32 17 C26.24885462 23.95992471 19.8581673 30.19819005 13.43164062 36.52929688 C8.94367833 40.97655203 4.60709207 45.44890678 0.56811523 50.31079102 C-2.15074967 53.23961341 -4.04120263 54.88259624 -8.0625 55.375 C-11 55 -11 55 -12.9375 53.9375 C-17.41980157 45.76389126 -6.95364619 22.86309327 -4.46240234 14.30102539 C-3.05726729 9.50360469 -1.63204645 4.72647116 0 0 Z " fill="#919191" transform="translate(353,129)"/>
<path d="M0 0 C2.94263052 2.46051917 3.71520529 4.67024261 4.68359375 8.33984375 C4.97169922 9.40396484 5.25980469 10.46808594 5.55664062 11.56445312 C5.84732422 12.67755859 6.13800781 13.79066406 6.4375 14.9375 C8.68868429 23.40094115 11.16699731 31.71281264 14 40 C16.5757114 47.8548779 16.5757114 47.8548779 16 52 C14.875 53.8125 14.875 53.8125 13 55 C9.94321231 55.62525203 7.99040382 55.62156378 5.30078125 53.93359375 C2.2281122 51.3995049 -0.41320292 48.57065029 -2.9765625 45.53125 C-8.00653185 39.74001324 -13.49486844 34.39813681 -18.9375 29 C-20.01390654 27.92862113 -21.09008014 26.85700818 -22.16601562 25.78515625 C-24.77466745 23.18740362 -27.38644471 20.59282038 -30 18 C-27.27418353 15.77830677 -24.5964132 13.63134826 -21.58203125 11.81640625 C-20.97174072 11.44829834 -20.3614502 11.08019043 -19.73266602 10.70092773 C-19.09901123 10.32524658 -18.46535645 9.94956543 -17.8125 9.5625 C-17.15628662 9.17070557 -16.50007324 8.77891113 -15.82397461 8.37524414 C-10.6709384 5.32880695 -5.42304547 2.53926129 0 0 Z " fill="#919191" transform="translate(157,129)"/>
<path d="M0 0 C2.1875 1.6875 2.1875 1.6875 4.1875 4.6875 C4.97784355 11.6876857 4.97784355 11.6876857 2.109375 15.31640625 C-1.29309605 18.07750241 -3.73565303 18.81540816 -8 19.75 C-8.68835938 19.90500977 -9.37671875 20.06001953 -10.0859375 20.21972656 C-11.55743021 20.54929338 -13.03065748 20.87119423 -14.50537109 21.18603516 C-16.87265958 21.70057596 -19.22675955 22.25736 -21.58203125 22.82421875 C-23.15866205 23.19612788 -24.73548098 23.5672405 -26.3125 23.9375 C-27.04106201 24.11289307 -27.76962402 24.28828613 -28.52026367 24.46899414 C-40.02047094 27.07556758 -40.02047094 27.07556758 -44.87109375 24.6640625 C-49.6341409 19.99546671 -49.6341409 19.99546671 -50.1875 15.9375 C-49.78740033 12.46996957 -48.92690608 10.55830623 -46.53515625 8 C-43.05870537 5.35127552 -39.01428163 4.61502095 -34.8125 3.6875 C-33.69875 3.43226563 -32.585 3.17703125 -31.4375 2.9140625 C-27.90297731 2.13119673 -24.36202617 1.39900412 -20.8125 0.6875 C-19.7915625 0.47867187 -18.770625 0.26984375 -17.71875 0.0546875 C-5.140292 -2.39880293 -5.140292 -2.39880293 0 0 Z " fill="#040404" transform="translate(127.8125,357.3125)"/>
<path d="M0 0 C2.10759685 0.48808279 4.21899116 0.95600712 6.33154297 1.42211914 C7.68728235 1.73017532 9.04276135 2.03938014 10.39794922 2.34985352 C11.61321289 2.62740479 12.82847656 2.90495605 14.08056641 3.19091797 C18.94409649 4.65295407 22.8720493 6.60744741 25.35107422 11.17407227 C25.87973708 14.21388369 25.95803011 16.17178113 24.33154297 18.85766602 C22.16575232 21.58616964 20.68708618 23.06206828 17.35107422 24.17407227 C10.45999798 24.75378289 4.0768547 22.91145865 -2.58642578 21.29907227 C-4.29862305 20.89495117 -4.29862305 20.89495117 -6.04541016 20.48266602 C-9.24925555 19.72381182 -12.44916319 18.94992346 -15.64892578 18.17407227 C-16.47803467 17.98047119 -17.30714355 17.78687012 -18.16137695 17.58740234 C-25.25943035 15.90168513 -25.25943035 15.90168513 -27.64892578 12.17407227 C-28.5227094 9.12439611 -28.90302932 6.34189635 -28.64892578 3.17407227 C-22.39949377 -7.16981521 -9.80358868 -2.27907577 0 0 Z " fill="#030303" transform="translate(408.64892578125,358.825927734375)"/>
<path d="M0 0 C2.5 2.125 2.5 2.125 3.5 4.125 C3.87712577 9.12191647 3.59290612 12.11567725 0.5 16.125 C-2.44836829 18.09057886 -3.59522955 18.46785895 -6.96484375 18.90625 C-7.84180908 19.02508545 -8.71877441 19.1439209 -9.62231445 19.26635742 C-10.55132568 19.38470947 -11.48033691 19.50306152 -12.4375 19.625 C-14.34651879 19.88028237 -16.25537471 20.13678576 -18.1640625 20.39453125 C-19.08477539 20.51779785 -20.00548828 20.64106445 -20.95410156 20.76806641 C-24.08808356 21.207449 -27.19880021 21.74819194 -30.3125 22.3125 C-41.77890969 24.22356828 -41.77890969 24.22356828 -46.4375 21.25 C-49.28852207 18.31258332 -49.46815355 17.51352666 -49.8125 13.3125 C-49.75157446 10.26068408 -49.4623797 9.05289442 -48 6.25 C-42.63642918 1.6909648 -34.11208082 1.52083018 -27.3125 0.5625 C-25.56885084 0.31230752 -23.82535571 0.06103876 -22.08203125 -0.19140625 C-21.27660889 -0.30798584 -20.47118652 -0.42456543 -19.64135742 -0.54467773 C-17.9750256 -0.80172333 -16.3170105 -1.11290147 -14.6640625 -1.4453125 C-9.24788787 -2.52072624 -4.92390178 -2.63780452 0 0 Z " fill="#030303" transform="translate(431.5,314.875)"/>
<path d="M0 0 C5.35489655 0.04576835 10.45069884 0.9760032 15.67529297 2.04418945 C19.15354939 2.74941843 22.59599078 3.36409308 26.125 3.75390625 C26.79700439 3.82883301 27.46900879 3.90375977 28.16137695 3.98095703 C30.01642018 4.17607907 31.87342309 4.35230261 33.73046875 4.52734375 C37.4241629 5.35966216 39.23179538 6.64322425 41.9375 9.25 C43.5395886 12.45417721 43.43035215 15.77339432 42.9375 19.25 C40.8130173 22.69312714 39.78897359 23.96617547 35.9375 25.25 C29.69822882 25.51140276 23.78672537 24.81185423 17.625 23.875 C16.69945313 23.73634521 15.77390625 23.59769043 14.8203125 23.45483398 C13.00262374 23.18016741 11.18538036 22.90253303 9.36865234 22.62158203 C7.34854345 22.31282468 5.32501019 22.0265723 3.30078125 21.74609375 C-1.82782633 20.96945604 -5.41849122 20.25840965 -9.0625 16.25 C-10.27510877 12.61217368 -10.45794552 10.07264001 -10.0625 6.25 C-7.625 3.375 -7.625 3.375 -5.0625 1.25 C-3.52368968 -0.28881032 -2.15060403 0.04308389 0 0 Z " fill="#030303" transform="translate(87.0625,312.75)"/>
<path d="M0 0 C2.95724885 3.64257953 5.07665769 7.6478761 7.3125 11.75 C10.50359958 17.53929586 13.92843135 22.78004019 18 28 C18 28.66 18 29.32 18 30 C18.66 30.33 19.32 30.66 20 31 C17.69 31.33 15.38 31.66 13 32 C0 8.67741935 0 8.67741935 0 0 Z " fill="#ABABAB" transform="translate(34,346)"/>
<path d="M0 0 C1.26131325 3.53380377 0.75597731 5.34620395 -0.73046875 8.73828125 C-1.12169922 9.64126953 -1.51292969 10.54425781 -1.91601562 11.47460938 C-2.33560547 12.41111328 -2.75519531 13.34761719 -3.1875 14.3125 C-3.58775391 15.23740234 -3.98800781 16.16230469 -4.40039062 17.11523438 C-6.6607398 22.26970973 -9.10435553 27.17392588 -12 32 C-14.31 31.67 -16.62 31.34 -19 31 C-18.34 30.67 -17.68 30.34 -17 30 C-16.30178518 28.68291295 -15.64450328 27.34418665 -15 26 C-13.5954431 23.63753529 -12.1792802 21.28486231 -10.75 18.9375 C-6.98664383 12.71802669 -3.40565045 6.42399164 0 0 Z " fill="#ABABAB" transform="translate(477,346)"/>
</svg>
